<svg viewBox="0 0 32 32" xmlns="http://www.w3.org/2000/svg" class="sui-icon-svg"><path d="M25.371 19.566c-1.688-.925-3.899-.637-5.282.674l-.315.294c-.297.282-.7.455-1.143.455-.333 0-.643-.098-.904-.267l.006.004c-1.005-.653-2.443-1.691-3.608-2.926-1.069-1.136-1.934-2.466-2.474-3.386a2.173 2.173 0 0 1 .398-2.709l.001-.001c1.435-1.35 1.834-3.453.957-5.294l-2.874-5.24-.88.197c-4.552 1.005-6.342 3.659-7.04 5.707-1.592 4.667.678 11.346 5.646 16.624 2.909 3.094 6.424 5.365 9.894 6.39 1.025.322 2.208.53 3.433.578l.026.001.325.005.493-.01a9.16 9.16 0 0 0 2.954-.609l-.063.021c2.558-.989 4.4-3.211 5.314-6.424l.246-.864-5.114-3.219z"/>
</svg>
