<svg viewBox="0 0 32 32" xmlns="http://www.w3.org/2000/svg" class="sui-icon-svg"><path d="m21.539 30.672-.323-.005a13.872 13.872 0 0 1-3.559-.605l.098.026c-3.469-1.026-6.984-3.296-9.893-6.39C2.894 18.42.624 11.741 2.214 7.074c.699-2.05 2.49-4.702 7.045-5.707l.878-.197 2.875 5.24c.875 1.843.477 3.944-.958 5.294a2.178 2.178 0 0 0-.394 2.72l-.005-.01c.539.92 1.406 2.25 2.474 3.386 1.163 1.235 2.603 2.274 3.606 2.926.645.41 1.485.33 2.042-.192l.317-.294a4.591 4.591 0 0 1 3.117-1.213c.792 0 1.537.2 2.188.551l-.024-.012 5.114 3.221-.246.864c-.915 3.213-2.752 5.435-5.314 6.424a8.934 8.934 0 0 1-2.872.587l-.017.001-.494.01zm-.257-2.403.25.003.422-.01a6.705 6.705 0 0 0 2.152-.44l-.046.016c1.613-.624 2.843-2 3.592-4l-3.494-2.205c-.637-.339-1.77-.264-2.421.354l-.32.299c-.763.72-1.76 1.099-2.874 1.099a4.106 4.106 0 0 1-2.128-.651l.016.01c-1.12-.73-2.725-1.89-4.053-3.301-1.219-1.299-2.192-2.787-2.792-3.81a4.512 4.512 0 0 1-.639-2.33c0-1.322.561-2.512 1.459-3.346l.003-.003a2.116 2.116 0 0 0 .46-2.469l.005.013-1.96-3.565c-2.829.869-3.971 2.576-4.427 3.914-1.312 3.848.747 9.558 5.123 14.206 2.624 2.789 5.758 4.826 8.824 5.733a11.05 11.05 0 0 0 2.825.481l.023.001z"></path></svg>
