<svg viewBox="0 0 32 32" xmlns="http://www.w3.org/2000/svg" class="sui-icon-svg"><path d="M11.087 24.157a.411.411 0 0 0 .302-.116.411.411 0 0 0 .118-.303v-11.79c-.007-.051-.003-.102.014-.15s.043-.092.079-.129a.33.33 0 0 1 .278-.094h7.644a.34.34 0 0 1 .273.099.331.331 0 0 1 .09.275v3.68c.007.05.003.101-.012.148a.338.338 0 0 1-.202.209.323.323 0 0 1-.148.017H16.08a.332.332 0 0 0-.379.374v1.631a4.94 4.94 0 0 0 .105 1.105c.08.329.218.641.408.921l2.376 3.728a.85.85 0 0 0 .792.397h3.099c.156 0 .257-.042.304-.129a.304.304 0 0 0-.047-.313l-2.356-3.805c-.109-.156-.069-.279.118-.373l1.653-.745c.532-.215.984-.59 1.294-1.073a3.194 3.194 0 0 0 .41-1.669v-5.406c0-.917-.237-1.612-.71-2.086s-1.169-.71-2.086-.71H10.344c-.898 0-1.588.237-2.071.71s-.725 1.169-.725 2.086v13.095a.411.411 0 0 0 .116.302.408.408 0 0 0 .302.116h3.122z"/><path d="m23.691 30.404-16.305-.008a6.414 6.414 0 0 1-6.083-6.405V8.016a6.414 6.414 0 0 1 6.083-6.405l.33-.008h15.975a6.413 6.413 0 0 1 6.413 6.412V23.99a6.413 6.413 0 0 1-6.413 6.412zm0-2.476a3.938 3.938 0 0 0 3.938-3.937V8.016a3.938 3.938 0 0 0-3.938-3.938H7.716a3.938 3.938 0 0 0-3.938 3.938v15.975a3.937 3.937 0 0 0 3.938 3.937h15.975z"/></svg>