<svg viewBox="0 0 32 32" xmlns="http://www.w3.org/2000/svg" class="sui-icon-svg"><path d="M1.6 31.443V13.648c-.008-2.498.608-4.629 1.819-6.429 1.2-1.79 2.894-3.195 5.037-4.171 2.09-.962 4.55-1.448 7.31-1.448 2.776 0 5.246.486 7.346 1.445 2.15.978 3.854 2.379 5.056 4.173 1.211 1.803 1.826 3.931 1.826 6.326 0 2.397-.613 4.525-1.826 6.326-1.2 1.787-2.899 3.192-5.056 4.171-2.106.96-4.581 1.445-7.346 1.445h-.058c-1.546 0-3.048-.19-4.483-.549l.128.026a2.743 2.743 0 0 0-.734-.097c-.676 0-1.296.238-1.78.636l.005-.004.005-.003-7.25 5.95z"/></svg>
