<svg viewBox="0 0 32 32" xmlns="http://www.w3.org/2000/svg" class="sui-icon-svg"><path d="M1.8 30.861V13.064c-.008-2.499.608-4.629 1.819-6.43 1.2-1.789 2.894-3.194 5.037-4.171 2.09-.96 4.55-1.446 7.31-1.446 2.776 0 5.246.486 7.346 1.445 2.15.978 3.854 2.379 5.056 4.173 1.211 1.802 1.826 3.93 1.826 6.326s-.614 4.525-1.826 6.326c-1.2 1.787-2.899 3.192-5.056 4.171-2.106.96-4.581 1.446-7.346 1.446h-.057c-1.546 0-3.048-.191-4.483-.55l.127.027a2.81 2.81 0 0 0-2.509.534l.005-.004zM15.966 3.418c-2.413 0-4.536.413-6.312 1.227-1.734.792-3.093 1.912-4.04 3.326-.957 1.421-1.421 3.053-1.421 4.989l.006 12.826 3.326-2.731a5.182 5.182 0 0 1 3.294-1.172c.466 0 .918.061 1.348.176l-.036-.008c1.256.306 2.544.458 3.835.453 2.421 0 4.56-.413 6.352-1.229 1.768-.803 3.096-1.893 4.056-3.325.955-1.421 1.419-3.053 1.419-4.989s-.464-3.568-1.419-4.986v-.002c-.963-1.437-2.291-2.525-4.056-3.326-1.787-.816-3.925-1.229-6.352-1.229z\"></path></svg>

